<svg width="20" height="20" viewBox="0 0 20 20" fill="none" xmlns="http://www.w3.org/2000/svg">
<rect width="20" height="20" fill="#E5E5E5"/>
<g clip-path="url(#clip0)">
<rect width="1316" height="1149" transform="translate(-295 -194)" fill="#F6F7FB"/>
<g filter="url(#filter0_d)">
<rect x="-257" y="-15" width="290" height="113" rx="5" fill="white"/>
</g>
<path d="M9.00798 12.2969C9.01839 11.6771 9.0887 11.1875 9.21891 10.8281C9.34912 10.4688 9.61475 10.0703 10.0158 9.63281L11.0392 8.57812C11.4767 8.08333 11.6955 7.55208 11.6955 6.98438C11.6955 6.4375 11.5522 6.01042 11.2658 5.70312C10.9793 5.39062 10.5627 5.23438 10.0158 5.23438C9.48454 5.23438 9.05745 5.375 8.73454 5.65625C8.41162 5.9375 8.25016 6.3151 8.25016 6.78906H6.80485C6.81527 5.94531 7.11475 5.26562 7.70329 4.75C8.29704 4.22917 9.06787 3.96875 10.0158 3.96875C11.0002 3.96875 11.7658 4.23438 12.3127 4.76562C12.8647 5.29167 13.1408 6.01562 13.1408 6.9375C13.1408 7.84896 12.7189 8.7474 11.8752 9.63281L11.0236 10.4766C10.6434 10.8984 10.4533 11.5052 10.4533 12.2969H9.00798ZM8.94548 14.7734C8.94548 14.5391 9.01579 14.3438 9.15641 14.1875C9.30225 14.026 9.51579 13.9453 9.79704 13.9453C10.0783 13.9453 10.2918 14.026 10.4377 14.1875C10.5835 14.3438 10.6564 14.5391 10.6564 14.7734C10.6564 15.0078 10.5835 15.2031 10.4377 15.3594C10.2918 15.5104 10.0783 15.5859 9.79704 15.5859C9.51579 15.5859 9.30225 15.5104 9.15641 15.3594C9.01579 15.2031 8.94548 15.0078 8.94548 14.7734Z" fill="#828282"/>
<circle cx="10" cy="10" r="9.5" stroke="#929292"/>
</g>
<defs>
<filter id="filter0_d" x="-261" y="-15" width="298" height="121" filterUnits="userSpaceOnUse" color-interpolation-filters="sRGB">
<feFlood flood-opacity="0" result="BackgroundImageFix"/>
<feColorMatrix in="SourceAlpha" type="matrix" values="0 0 0 0 0 0 0 0 0 0 0 0 0 0 0 0 0 0 127 0"/>
<feOffset dy="4"/>
<feGaussianBlur stdDeviation="2"/>
<feColorMatrix type="matrix" values="0 0 0 0 0 0 0 0 0 0 0 0 0 0 0 0 0 0 0.03 0"/>
<feBlend mode="normal" in2="BackgroundImageFix" result="effect1_dropShadow"/>
<feBlend mode="normal" in="SourceGraphic" in2="effect1_dropShadow" result="shape"/>
</filter>
<clipPath id="clip0">
<rect width="1316" height="1149" fill="white" transform="translate(-295 -194)"/>
</clipPath>
</defs>
</svg>
